<svg xmlns="http://www.w3.org/2000/svg" width="19" height="19" viewBox="0 0 19 19"><g><g><path fill="#555" d="M18.84 16.164l-.968 1.607a2.265 2.265 0 0 1-1.342 1.034 5.602 5.602 0 0 1-1.488.195c-2.183 0-5.36-1.148-9.627-5.415C.051 8.22-.385 4.578.195 2.468a2.27 2.27 0 0 1 1.034-1.342L2.837.16a1.116 1.116 0 0 1 1.505.338l2.565 3.846a1.123 1.123 0 0 1-.245 1.503l-1.439 1.12a.479.479 0 0 0-.127.617l.117.213c.385.705.866 1.584 2.636 3.356 1.771 1.772 2.65 2.251 3.356 2.636l.213.117c.209.116.47.061.614-.129l1.12-1.44a1.122 1.122 0 0 1 1.503-.244l3.846 2.564c.497.331.646.995.338 1.507zm-.693-.979l-3.845-2.564a.487.487 0 0 0-.652.106l-1.12 1.439a1.108 1.108 0 0 1-1.422.294l-.208-.115c-.742-.404-1.665-.908-3.502-2.744-1.836-1.837-2.34-2.76-2.744-3.502L4.54 7.89a1.108 1.108 0 0 1 .293-1.422l1.44-1.12c.2-.157.245-.44.105-.653L5.21 2.943 3.816.85a.484.484 0 0 0-.653-.147l-1.608.965a1.64 1.64 0 0 0-.75.967C.272 4.584.715 7.987 5.864 13.137c5.15 5.15 8.553 5.593 10.5 5.058.407-.115.753-.384.966-.748l.965-1.608a.484.484 0 0 0-.147-.654zM10.449 2.851c0-.175.142-.317.317-.317A6.023 6.023 0 0 1 16.78 8.55a.317.317 0 1 1-.633 0 5.389 5.389 0 0 0-5.382-5.382.317.317 0 0 1-.317-.317zm0 1.9c0-.175.142-.317.317-.317a4.12 4.12 0 0 1 4.116 4.117.316.316 0 1 1-.633 0 3.487 3.487 0 0 0-3.483-3.484.316.316 0 0 1-.317-.316zm0 1.9c0-.175.142-.317.317-.317a2.219 2.219 0 0 1 2.216 2.217.317.317 0 1 1-.633 0 1.584 1.584 0 0 0-1.583-1.583.317.317 0 0 1-.317-.317z"/></g></g></svg>