<svg xmlns="http://www.w3.org/2000/svg" width="21" height="13" viewBox="0 0 21 13"><g><g><path fill="#242424" d="M5.937.224a.738.738 0 0 1 1.059 0 .753.753 0 0 1 0 1.053L2.54 5.744h17.718c.414 0 .742.33.742.745a.748.748 0 0 1-.742.756H2.54l4.456 4.457a.765.765 0 0 1 0 1.063.738.738 0 0 1-1.06 0L.21 7.02a.735.735 0 0 1 0-1.052z"/><path fill="#6c757d" fill-opacity=".52" d="M5.937.224a.738.738 0 0 1 1.059 0 .753.753 0 0 1 0 1.053L2.54 5.744h17.718c.414 0 .742.33.742.745a.748.748 0 0 1-.742.756H2.54l4.456 4.457a.765.765 0 0 1 0 1.063.738.738 0 0 1-1.06 0L.21 7.02a.735.735 0 0 1 0-1.052z"/></g></g></svg>