<svg xmlns="http://www.w3.org/2000/svg" width="17" height="17" viewBox="0 0 17 17"><g><g><path d="M17 4.69v7.617a4.697 4.697 0 0 1-4.692 4.692H4.691A4.697 4.697 0 0 1 0 12.307V4.69A4.697 4.697 0 0 1 4.69-.002h7.617A4.697 4.697 0 0 1 17 4.691zm-1.509 7.617V4.69a3.187 3.187 0 0 0-3.183-3.184H4.691A3.187 3.187 0 0 0 1.508 4.69v7.616a3.187 3.187 0 0 0 3.183 3.183h7.617a3.187 3.187 0 0 0 3.183-3.183zm-2.61-3.808a4.385 4.385 0 0 1-4.381 4.38 4.385 4.385 0 0 1-4.38-4.38 4.385 4.385 0 0 1 4.38-4.38 4.386 4.386 0 0 1 4.38 4.38zm-1.51 0A2.876 2.876 0 0 0 8.5 5.627a2.875 2.875 0 0 0-2.872 2.872A2.875 2.875 0 0 0 8.5 11.37a2.875 2.875 0 0 0 2.872-2.872zm2.475-5.336a1.11 1.11 0 0 1 0 1.565c-.206.205-.49.324-.782.324-.29 0-.576-.119-.781-.324a1.115 1.115 0 0 1-.325-.783 1.11 1.11 0 0 1 1.106-1.106c.292 0 .577.119.782.324z"/><path fill="#535353" d="M17 4.69v7.617a4.697 4.697 0 0 1-4.692 4.692H4.691A4.697 4.697 0 0 1 0 12.307V4.69A4.697 4.697 0 0 1 4.69-.002h7.617A4.697 4.697 0 0 1 17 4.691zm-1.509 7.617V4.69a3.187 3.187 0 0 0-3.183-3.184H4.691A3.187 3.187 0 0 0 1.508 4.69v7.616a3.187 3.187 0 0 0 3.183 3.183h7.617a3.187 3.187 0 0 0 3.183-3.183zm-2.61-3.808a4.385 4.385 0 0 1-4.381 4.38 4.385 4.385 0 0 1-4.38-4.38 4.385 4.385 0 0 1 4.38-4.38 4.386 4.386 0 0 1 4.38 4.38zm-1.51 0A2.876 2.876 0 0 0 8.5 5.627a2.875 2.875 0 0 0-2.872 2.872A2.875 2.875 0 0 0 8.5 11.37a2.875 2.875 0 0 0 2.872-2.872zm2.475-5.336a1.11 1.11 0 0 1 0 1.565c-.206.205-.49.324-.782.324-.29 0-.576-.119-.781-.324a1.115 1.115 0 0 1-.325-.783 1.11 1.11 0 0 1 1.106-1.106c.292 0 .577.119.782.324z"/></g></g></svg>