<?xml version="1.0" encoding="utf-8"?><svg xmlns="http://www.w3.org/2000/svg" xmlns:xlink="http://www.w3.org/1999/xlink"><symbol viewBox="0 0 18 30" id="arrowL" xmlns="http://www.w3.org/2000/svg"><path d="M14.991.366l-13.75 13.75a1.249 1.249 0 000 1.768l13.75 13.75a1.249 1.249 0 101.768-1.768L3.892 15 16.76 2.134a1.247 1.247 0 000-1.767 1.249 1.249 0 00-1.768 0z"/></symbol><symbol viewBox="0 0 21 13" id="arrowPrev" xmlns="http://www.w3.org/2000/svg"><path d="M5.937.224a.738.738 0 011.059 0 .753.753 0 010 1.053L2.54 5.744h17.718c.414 0 .742.33.742.745a.748.748 0 01-.742.756H2.54l4.456 4.457a.765.765 0 010 1.063.738.738 0 01-1.06 0L.21 7.02a.735.735 0 010-1.052z"/><path fill-opacity=".52" d="M5.937.224a.738.738 0 011.059 0 .753.753 0 010 1.053L2.54 5.744h17.718c.414 0 .742.33.742.745a.748.748 0 01-.742.756H2.54l4.456 4.457a.765.765 0 010 1.063.738.738 0 01-1.06 0L.21 7.02a.735.735 0 010-1.052z"/></symbol><symbol viewBox="0 0 22 24" id="basket" xmlns="http://www.w3.org/2000/svg"><g clip-path="url(#cclip0)"><path d="M10.363 18.443a2.046 2.046 0 00-2.045 2.042 2.046 2.046 0 004.09 0 2.046 2.046 0 00-2.045-2.042zm6.134 0a2.046 2.046 0 00-2.045 2.042 2.046 2.046 0 004.089 0 2.046 2.046 0 00-2.044-2.042zm3.978-8.199L7.413 6.891a.614.614 0 00-.75.73L8.67 16.4h-.786L5.482 5.895a.613.613 0 00-.474-.464l-4.27-.882A.614.614 0 00.489 5.75l3.885.802L6.797 17.15a.613.613 0 00.598.477h12.07a.615.615 0 00.607-.53l.858-6.175a.613.613 0 00-.455-.678zm-8.14 3.91a.613.613 0 01-1.227 0v-2.696a.613.613 0 011.227 0v2.696zm2.625 0a.613.613 0 01-1.227 0v-1.88a.613.613 0 011.227 0v1.88zm2.625 0a.613.613 0 01-1.227 0v-1.226a.613.613 0 011.227 0v1.226z"/></g><path fill-rule="evenodd" clip-rule="evenodd" d="M16.268 4.568a2.996 2.996 0 00-1.693-.523c-.627 0-1.21.193-1.693.523-.28-.843-.492-1.752-.492-2.383C12.39.98 13.37 0 14.575 0s2.185.98 2.185 2.185c0 .631-.212 1.54-.492 2.383zm-4.722 2.274l.024.006v-.011l-.024.005zm4.972 1.217c-1.333-.33-2.766-.681-4.129-1.013a2.185 2.185 0 114.129 1.013zm4.436 1.103c-.866-.217-2.155-.538-3.618-.9a2.995 2.995 0 00.243-1.425c.87.18 1.762.45 2.308.765.596.344.969.928 1.067 1.56zM9.869 6.439c-.36-.086-.706-.167-1.03-.243a2.19 2.19 0 01-.376-2.667 2.188 2.188 0 013.147-.7c.098.738.338 1.599.61 2.353a3.01 3.01 0 00-.449.774c-.628.113-1.305.278-1.902.483zm10.124.075a3.43 3.43 0 01-.217.114c-.696-.295-1.587-.526-2.397-.672a3.01 3.01 0 00-.449-.774c.262-.727.494-1.553.599-2.273.095-.067.189-.128.278-.18a2.188 2.188 0 012.986.8 2.188 2.188 0 01-.8 2.985z"/><defs><clipPath id="cclip0"><path transform="translate(0 3.064)" d="M0 0h20.936v20.936H0z"/></clipPath></defs></symbol><symbol viewBox="0 0 344.96 344.96" id="check" xmlns="http://www.w3.org/2000/svg"><g data-name="Слой 2"><path d="M321.85 86.24l-40-23.11-23.1-40H212.5L172.48 0l-40 23.11H86.24l-23.11 40-40 23.1v46.21L0 172.48l23.11 40v46.21l40 23.11 23.11 40h46.21l40 23.1 40-23.11h46.21l23.11-40 40-23.11V212.5l23.11-40-23.11-40V86.24zM156.91 243.07a16.79 16.79 0 01-23.34 0l-50.45-50.44a16.19 16.19 0 010-22.89l13.35-13.35a16.19 16.19 0 0122.89 0l25.87 25.87 80.34-80.35a16.19 16.19 0 0122.89 0l13.35 13.35a16.19 16.19 0 010 22.89z" data-name="Capa 1"/></g></symbol><symbol viewBox="0 0 15 26" id="chevron-right" xmlns="http://www.w3.org/2000/svg"><path d="M1 1l12 12L1 25"/></symbol><symbol viewBox="0 0 24 24" id="fb" xmlns="http://www.w3.org/2000/svg"><path d="M13.397 20.997v-8.196h2.765l.411-3.209h-3.176V7.548c0-.926.258-1.56 1.587-1.56h1.684v-2.86A22.108 22.108 0 0014.201 3c-2.444 0-4.122 1.492-4.122 4.231v2.355H7.332v3.21h2.753v8.201h3.312z"/></symbol><symbol viewBox="0 0 24 24" id="instagram" xmlns="http://www.w3.org/2000/svg"><path d="M11.999 7.377a4.624 4.624 0 100 9.248 4.624 4.624 0 000-9.248zm0 7.627a3.004 3.004 0 110-6.008 3.004 3.004 0 010 6.008zm4.807-6.719a1.078 1.078 0 100-2.156 1.078 1.078 0 000 2.156z"/><path d="M20.533 6.11A4.605 4.605 0 0017.9 3.48a6.607 6.607 0 00-2.186-.42c-.963-.042-1.268-.054-3.71-.054s-2.755 0-3.71.054a6.554 6.554 0 00-2.184.42 4.6 4.6 0 00-2.633 2.63 6.585 6.585 0 00-.419 2.186c-.043.962-.056 1.267-.056 3.71 0 2.442 0 2.753.056 3.71.015.748.156 1.486.419 2.187a4.61 4.61 0 002.634 2.632 6.583 6.583 0 002.185.45c.963.042 1.268.055 3.71.055s2.755 0 3.71-.055a6.616 6.616 0 002.186-.42 4.613 4.613 0 002.633-2.632c.263-.7.404-1.438.419-2.186.043-.962.056-1.267.056-3.71s0-2.753-.056-3.71a6.583 6.583 0 00-.421-2.217zm-1.218 9.533a5.046 5.046 0 01-.311 1.688 2.987 2.987 0 01-1.712 1.71c-.535.2-1.1.305-1.67.312-.95.044-1.218.055-3.654.055-2.438 0-2.687 0-3.655-.055a4.961 4.961 0 01-1.67-.311 2.984 2.984 0 01-1.718-1.711 5.08 5.08 0 01-.311-1.67c-.043-.95-.053-1.217-.053-3.653 0-2.437 0-2.686.053-3.655a5.038 5.038 0 01.311-1.687c.305-.79.93-1.41 1.719-1.712a5.01 5.01 0 011.669-.311c.95-.043 1.218-.055 3.655-.055s2.687 0 3.654.055a4.96 4.96 0 011.67.31 2.99 2.99 0 011.712 1.713 5.06 5.06 0 01.311 1.669c.043.95.054 1.218.054 3.655 0 2.436 0 2.698-.043 3.654h-.011v-.001z"/></symbol><symbol viewBox="0 0 17 17" id="instagramm" xmlns="http://www.w3.org/2000/svg"><path d="M17 4.69v7.617a4.697 4.697 0 01-4.692 4.692H4.691A4.697 4.697 0 010 12.307V4.69A4.697 4.697 0 014.69-.002h7.617A4.697 4.697 0 0117 4.691zm-1.509 7.617V4.69a3.187 3.187 0 00-3.183-3.184H4.691A3.187 3.187 0 001.508 4.69v7.616a3.187 3.187 0 003.183 3.183h7.617a3.187 3.187 0 003.183-3.183zm-2.61-3.808a4.385 4.385 0 01-4.381 4.38 4.385 4.385 0 01-4.38-4.38 4.385 4.385 0 014.38-4.38 4.386 4.386 0 014.38 4.38zm-1.51 0A2.876 2.876 0 008.5 5.627a2.875 2.875 0 00-2.872 2.872A2.875 2.875 0 008.5 11.37a2.875 2.875 0 002.872-2.872zm2.475-5.336a1.11 1.11 0 010 1.565c-.206.205-.49.324-.782.324-.29 0-.576-.119-.781-.324a1.115 1.115 0 01-.325-.783 1.11 1.11 0 011.106-1.106c.292 0 .577.119.782.324z"/><path d="M17 4.69v7.617a4.697 4.697 0 01-4.692 4.692H4.691A4.697 4.697 0 010 12.307V4.69A4.697 4.697 0 014.69-.002h7.617A4.697 4.697 0 0117 4.691zm-1.509 7.617V4.69a3.187 3.187 0 00-3.183-3.184H4.691A3.187 3.187 0 001.508 4.69v7.616a3.187 3.187 0 003.183 3.183h7.617a3.187 3.187 0 003.183-3.183zm-2.61-3.808a4.385 4.385 0 01-4.381 4.38 4.385 4.385 0 01-4.38-4.38 4.385 4.385 0 014.38-4.38 4.386 4.386 0 014.38 4.38zm-1.51 0A2.876 2.876 0 008.5 5.627a2.875 2.875 0 00-2.872 2.872A2.875 2.875 0 008.5 11.37a2.875 2.875 0 002.872-2.872zm2.475-5.336a1.11 1.11 0 010 1.565c-.206.205-.49.324-.782.324-.29 0-.576-.119-.781-.324a1.115 1.115 0 01-.325-.783 1.11 1.11 0 011.106-1.106c.292 0 .577.119.782.324z"/></symbol><symbol viewBox="0 0 19 19" id="phone" xmlns="http://www.w3.org/2000/svg"><path d="M18.84 16.164l-.968 1.607a2.265 2.265 0 01-1.342 1.034 5.602 5.602 0 01-1.488.195c-2.183 0-5.36-1.148-9.627-5.415C.051 8.22-.385 4.578.195 2.468a2.27 2.27 0 011.034-1.342L2.837.16a1.116 1.116 0 011.505.338l2.565 3.846a1.123 1.123 0 01-.245 1.503l-1.439 1.12a.479.479 0 00-.127.617l.117.213c.385.705.866 1.584 2.636 3.356 1.771 1.772 2.65 2.251 3.356 2.636l.213.117c.209.116.47.061.614-.129l1.12-1.44a1.122 1.122 0 011.503-.244l3.846 2.564c.497.331.646.995.338 1.507zm-.693-.979l-3.845-2.564a.487.487 0 00-.652.106l-1.12 1.439a1.108 1.108 0 01-1.422.294l-.208-.115c-.742-.404-1.665-.908-3.502-2.744-1.836-1.837-2.34-2.76-2.744-3.502L4.54 7.89a1.108 1.108 0 01.293-1.422l1.44-1.12c.2-.157.245-.44.105-.653L5.21 2.943 3.816.85a.484.484 0 00-.653-.147l-1.608.965a1.64 1.64 0 00-.75.967C.272 4.584.715 7.987 5.864 13.137c5.15 5.15 8.553 5.593 10.5 5.058.407-.115.753-.384.966-.748l.965-1.608a.484.484 0 00-.147-.654zM10.449 2.851c0-.175.142-.317.317-.317A6.023 6.023 0 0116.78 8.55a.317.317 0 11-.633 0 5.389 5.389 0 00-5.382-5.382.317.317 0 01-.317-.317zm0 1.9c0-.175.142-.317.317-.317a4.12 4.12 0 014.116 4.117.316.316 0 11-.633 0 3.487 3.487 0 00-3.483-3.484.316.316 0 01-.317-.316zm0 1.9c0-.175.142-.317.317-.317a2.219 2.219 0 012.216 2.217.317.317 0 11-.633 0 1.584 1.584 0 00-1.583-1.583.317.317 0 01-.317-.317z"/></symbol><symbol viewBox="0 0 30 30" id="phone-bg" xmlns="http://www.w3.org/2000/svg"><g clip-path="url(#kclip0)"><path d="M23.71 18.584c-.615-.64-1.355-.981-2.14-.981-.78 0-1.526.335-2.166.975l-2 1.994c-.165-.088-.33-.17-.488-.253a7.926 7.926 0 01-.627-.336c-1.874-1.19-3.578-2.741-5.211-4.748-.792-1-1.323-1.843-1.71-2.698.52-.475 1-.969 1.47-1.443.177-.178.354-.361.531-.539 1.33-1.33 1.33-3.051 0-4.381L9.641 4.445a26.387 26.387 0 01-.59-.601 29.89 29.89 0 00-1.19-1.178c-.614-.608-1.348-.93-2.12-.93-.773 0-1.52.322-2.154.93l-.012.013L1.422 4.85A4.632 4.632 0 00.048 7.795c-.152 1.849.393 3.57.81 4.698 1.026 2.767 2.558 5.331 4.844 8.08 2.774 3.31 6.11 5.926 9.922 7.768 1.456.69 3.4 1.507 5.572 1.646.133.007.272.013.399.013 1.462 0 2.69-.525 3.653-1.57.006-.013.02-.02.025-.032.33-.399.71-.76 1.109-1.146.272-.26.55-.532.823-.817.627-.652.956-1.412.956-2.19 0-.786-.336-1.539-.975-2.172l-3.476-3.489zm2.266 6.667c-.006 0-.006.007 0 0-.247.266-.5.507-.772.773-.412.392-.83.804-1.222 1.266-.64.684-1.393 1.007-2.38 1.007-.096 0-.197 0-.292-.006-1.88-.12-3.628-.855-4.939-1.482-3.584-1.735-6.73-4.198-9.345-7.32-2.16-2.602-3.603-5.008-4.56-7.591-.588-1.577-.803-2.805-.708-3.964.063-.74.348-1.355.873-1.88l2.16-2.16c.31-.29.639-.45.962-.45.399 0 .722.242.924.444l.02.02c.386.36.753.734 1.139 1.132.196.203.399.406.602.615l1.728 1.728c.671.671.671 1.292 0 1.963-.184.184-.36.367-.544.545a33.018 33.018 0 01-1.59 1.544c-.012.013-.025.02-.031.032-.545.545-.444 1.077-.33 1.438l.02.056c.449 1.09 1.082 2.115 2.045 3.337l.006.007c1.747 2.152 3.59 3.83 5.622 5.116.26.164.526.297.78.424.227.114.442.222.626.335.025.013.05.032.076.045.215.107.418.158.627.158.525 0 .855-.33.962-.437l2.166-2.165c.215-.216.557-.475.956-.475.392 0 .715.247.912.462l.012.013 3.489 3.489c.652.645.652 1.31.006 1.981zM16.213 7.136a8.029 8.029 0 014.369 2.267 8.07 8.07 0 012.267 4.369.85.85 0 00.842.709.856.856 0 00.848-1 9.765 9.765 0 00-2.742-5.287 9.766 9.766 0 00-5.287-2.742.86.86 0 00-.987.696.846.846 0 00.69.988zm13.752 6.098a16.066 16.066 0 00-4.514-8.706A16.066 16.066 0 0016.745.013a.852.852 0 00-.982.697.859.859 0 00.703.987c2.95.5 5.642 1.9 7.782 4.034a14.344 14.344 0 014.033 7.781c.07.418.43.71.842.71.05 0 .095-.007.146-.013a.839.839 0 00.696-.975z"/></g><defs><clipPath id="kclip0"><path d="M0 0h30v30H0z"/></clipPath></defs></symbol><symbol viewBox="0 0 16 16" id="telegram" xmlns="http://www.w3.org/2000/svg"><path d="M14.629 3.698l-2.012 9.618c-.152.679-.548.848-1.11.528l-3.066-2.29-1.48 1.442c-.163.166-.3.305-.616.305l.22-3.165 5.683-5.204c.247-.223-.054-.347-.384-.123L4.839 9.29l-3.024-.959c-.658-.208-.67-.667.137-.986L13.78 2.727c.548-.208 1.027.124.849.971z"/></symbol><symbol viewBox="0 0 16 16" id="viber" xmlns="http://www.w3.org/2000/svg"><path d="M8 1.335c-1.071.013-3.374.19-4.662 1.37-.958.948-1.292 2.35-1.331 4.084-.033 1.728-.072 4.973 3.058 5.856v1.346s-.02.538.337.648c.438.14.688-.275 1.105-.72l.778-.879c2.142.178 3.782-.232 3.97-.293.435-.139 2.883-.451 3.283-3.696.41-3.351-.2-5.463-1.301-6.418h-.007c-.332-.306-1.668-1.279-4.652-1.29 0 0-.222-.014-.578-.008zm.037.942a7.02 7.02 0 01.488.011c2.527.007 3.732.767 4.017 1.023.927.794 1.405 2.697 1.055 5.495-.332 2.713-2.317 2.885-2.685 3.002-.156.05-1.6.406-3.42.289 0 0-1.356 1.634-1.78 2.055-.067.074-.146.095-.196.085-.071-.018-.093-.107-.089-.229l.013-2.233c-2.655-.733-2.498-3.5-2.47-4.946.033-1.446.304-2.628 1.113-3.43 1.088-.982 3.043-1.115 3.953-1.122zm.2 1.446a.166.166 0 100 .332 3.136 3.136 0 012.242.883c.606.588.9 1.378.912 2.411 0 .092.074.167.167.167V7.51a.167.167 0 00.168-.165 3.588 3.588 0 00-1.009-2.646c-.66-.645-1.496-.977-2.48-.977zm-2.198.382a.523.523 0 00-.342.067H5.69a2.61 2.61 0 00-.637.523 1.003 1.003 0 00-.256.525.71.71 0 00.026.302l.01.006c.172.504.396.988.67 1.444a8.48 8.48 0 001.29 1.762l.015.022.024.017.015.018.017.015c.532.505 1.127.94 1.769 1.295.734.4 1.18.588 1.447.667v.004c.078.024.15.034.221.034.228-.016.444-.109.613-.262a2.53 2.53 0 00.517-.638v-.004c.128-.241.085-.469-.1-.623-.37-.323-.77-.61-1.195-.857-.285-.155-.574-.061-.69.095l-.25.315c-.129.156-.361.134-.361.134l-.007.004C7.093 8.527 6.63 6.772 6.63 6.772s-.022-.239.139-.36l.312-.252c.15-.122.254-.41.094-.695a7.498 7.498 0 00-.856-1.194.475.475 0 00-.28-.167zm2.486.495c-.221 0-.221.334.003.334A2.098 2.098 0 0110 5.572 1.94 1.94 0 0110.5 7a.168.168 0 00.167.165l.007.009a.169.169 0 00.167-.167c.015-.662-.191-1.218-.595-1.663C9.84 4.9 9.273 4.65 8.549 4.6h-.024zm.274.898c-.228-.006-.236.335-.01.341.55.029.816.306.851.877a.166.166 0 00.165.163h.007a.168.168 0 00.16-.178c-.039-.744-.445-1.164-1.166-1.202H8.8z"/></symbol><symbol viewBox="0 0 24 24" id="vk" xmlns="http://www.w3.org/2000/svg"><path d="M21.579 6.855c.14-.465 0-.806-.662-.806h-2.193c-.558 0-.813.295-.953.619 0 0-1.115 2.719-2.695 4.482-.51.513-.743.675-1.021.675-.139 0-.341-.162-.341-.627V6.855c0-.558-.161-.806-.626-.806H9.642c-.348 0-.558.258-.558.504 0 .528.79.65.871 2.138v3.228c0 .707-.127.836-.407.836-.743 0-2.551-2.73-3.624-5.853-.209-.607-.42-.852-.98-.852H2.752c-.627 0-.752.295-.752.619 0 .582.743 3.462 3.461 7.27 1.812 2.602 4.363 4.012 6.687 4.012 1.393 0 1.565-.313 1.565-.853v-1.966c0-.626.133-.752.574-.752.324 0 .882.164 2.183 1.417 1.486 1.486 1.732 2.153 2.567 2.153h2.192c.626 0 .939-.313.759-.931-.197-.615-.907-1.51-1.849-2.57-.512-.603-1.277-1.253-1.51-1.578-.325-.42-.231-.604 0-.976.001 0 2.672-3.761 2.95-5.04z"/></symbol><symbol viewBox="0 0 16 16" id="whatsapp" xmlns="http://www.w3.org/2000/svg"><path fill-rule="evenodd" clip-rule="evenodd" d="M12.269 3.755A5.947 5.947 0 008.035 2 5.994 5.994 0 002.05 7.985a5.98 5.98 0 00.799 2.992L2 14.077l3.173-.832c.877.477 1.86.728 2.86.728h.002a5.993 5.993 0 005.533-8.276 5.953 5.953 0 00-1.3-1.942zm-4.234 9.208h-.002c-.89 0-1.765-.24-2.532-.694l-.181-.108-1.883.494.502-1.835-.118-.188a4.965 4.965 0 01-.76-2.647 4.982 4.982 0 016.88-4.597c.604.25 1.152.618 1.613 1.081a4.946 4.946 0 011.455 3.52 4.982 4.982 0 01-4.974 4.974zm2.729-3.726c-.15-.075-.885-.436-1.022-.486-.137-.05-.236-.075-.336.074-.1.15-.387.486-.474.586-.087.1-.175.112-.324.038-.15-.075-.631-.233-1.203-.742a4.505 4.505 0 01-.832-1.036c-.087-.15-.009-.231.066-.306.068-.066.15-.174.224-.262.075-.087.1-.149.15-.249.05-.1.025-.187-.013-.262-.037-.075-.337-.811-.461-1.11-.121-.29-.244-.252-.336-.256a6.418 6.418 0 00-.286-.005.55.55 0 00-.4.186c-.137.15-.523.512-.523 1.248s.536 1.447.61 1.547c.075.1 1.055 1.61 2.555 2.258.358.154.636.246.853.315.358.114.684.098.942.06.287-.043.885-.362 1.01-.711.124-.35.124-.649.087-.711-.038-.063-.138-.101-.287-.176z"/></symbol><symbol viewBox="0 0 344.96 344.96" id="check" xmlns="http://www.w3.org/2000/svg"><g data-name="Слой 2"><path d="M321.85 86.24l-40-23.11-23.1-40H212.5L172.48 0l-40 23.11H86.24l-23.11 40-40 23.1v46.21L0 172.48l23.11 40v46.21l40 23.11 23.11 40h46.21l40 23.1 40-23.11h46.21l23.11-40 40-23.11V212.5l23.11-40-23.11-40V86.24zM156.91 243.07a16.79 16.79 0 0 1-23.34 0l-50.45-50.44a16.19 16.19 0 0 1 0-22.89l13.35-13.35a16.19 16.19 0 0 1 22.89 0l25.87 25.87 80.34-80.35a16.19 16.19 0 0 1 22.89 0l13.35 13.35a16.19 16.19 0 0 1 0 22.89z" data-name="Capa 1"/></g></symbol><symbol viewBox="0 0 297 550" id="chevron-left" xmlns="http://www.w3.org/2000/svg"><defs><path id="ba" d="M262.88 545.31c3.796 3.793 8.542 5.69 13.763 5.69 5.22 0 9.966-1.897 13.763-5.69 7.594-7.588 7.594-19.918 0-27.506L48.359 275.948 290.406 34.092c7.594-7.587 7.594-19.917 0-27.505-7.594-7.587-19.933-7.587-27.527 0L6.594 262.196C-1 269.783-1 282.113 6.594 289.7z"/></defs><use xlink:href="#ba" transform="translate(0 -1)"/></symbol><symbol viewBox="0 0 90 58" id="email" xmlns="http://www.w3.org/2000/svg"><g data-name="Слой 2"><path d="M3 5.43l37.5 20.14a10.76 10.76 0 0 0 9.06 0L87 5.43C89.47 4.12 91.78 0 87.3 0H2.7C-1.78 0 .53 4.12 3 5.43zm85.09 10L49.53 35.57a8.53 8.53 0 0 1-4.53 1 8.53 8.53 0 0 1-4.53-1L1.94 15.43c-2-1-1.94.17-1.94 1.1v36.68C0 55.3 2.79 58 5 58h80c2.17 0 5-2.7 5-4.79V16.53c0-.93 0-2.12-1.94-1.1z" data-name="All glyphs"/></g></symbol><symbol viewBox="0 0 27 27" id="instagram" xmlns="http://www.w3.org/2000/svg"><defs><path id="da" d="M1310 11240.45v12.098c0 4.108-3.343 7.451-7.451 7.451h-12.098c-4.109 0-7.451-3.343-7.451-7.451v-12.098c0-4.109 3.342-7.452 7.45-7.452h12.099c4.108 0 7.451 3.343 7.45 7.452zm-2.396 12.098v-12.098a5.061 5.061 0 0 0-5.055-5.056h-12.098a5.061 5.061 0 0 0-5.056 5.056v12.098a5.062 5.062 0 0 0 5.056 5.056h12.098a5.062 5.062 0 0 0 5.055-5.056zm-4.147-6.049a6.965 6.965 0 0 1-6.957 6.957 6.965 6.965 0 0 1-6.957-6.957 6.965 6.965 0 0 1 6.957-6.957 6.965 6.965 0 0 1 6.957 6.957zm-2.395 0a4.567 4.567 0 0 0-4.562-4.562 4.567 4.567 0 0 0-4.562 4.562 4.567 4.567 0 0 0 4.562 4.562 4.567 4.567 0 0 0 4.562-4.562zm3.93-8.474c.327.326.514.779.514 1.242 0 .462-.187.915-.515 1.243a1.771 1.771 0 0 1-1.242.514 1.77 1.77 0 0 1-1.241-.514 1.771 1.771 0 0 1-.516-1.243c0-.463.188-.916.516-1.242.326-.327.78-.514 1.24-.514.464 0 .918.187 1.243.514z"/></defs><g transform="translate(-1283 -11233)"><use xlink:href="#da"/><use xlink:href="#da"/></g></symbol><symbol viewBox="0 0 80 80" id="tel" xmlns="http://www.w3.org/2000/svg"><g data-name="Слой 2"><path d="M46.14 46.14C38.23 54.06 29.06 61.63 25.43 58c-5.19-5.19-8.38-9.7-19.82-.51S3 72.81 8 77.84c5.8 5.8 27.42.3 48.79-21.06S83.64 13.78 77.84 8c-5-5-11.16-13.81-20.35-2.37s-4.68 14.61.51 19.8c3.63 3.63-3.94 12.79-11.86 20.71z" data-name="All glyphs"/></g></symbol></svg>